<?xml version="1.0" standalone="no"?>
<!DOCTYPE svg PUBLIC "-//W3C//DTD SVG 20010904//EN"
 "http://www.w3.org/TR/2001/REC-SVG-20010904/DTD/svg10.dtd">
<svg version="1.0" xmlns="http://www.w3.org/2000/svg"
 width="400.000000pt" height="400.000000pt" viewBox="0 0 400.000000 400.000000"
 preserveAspectRatio="xMidYMid meet">
<metadata>
Created by potrace 1.11, written by Peter Selinger 2001-2013
</metadata>
<g transform="translate(0.000000,400.000000) scale(0.100000,-0.100000)"
fill="#000000" stroke="none">
<path d="M596 3784 c-162 -39 -298 -163 -369 -336 l-22 -53 -3 -1374 c-2 -909
1 -1393 8 -1430 32 -176 186 -334 363 -371 36 -7 476 -10 1452 -8 1379 3 1401
3 1450 23 155 63 255 172 297 324 17 63 18 137 17 1456 0 1314 -1 1393 -18
1447 -54 167 -196 297 -361 328 -35 7 -531 10 -1404 9 -1127 -1 -1361 -3
-1410 -15z m1804 -908 c96 -20 167 -55 233 -116 119 -109 165 -290 113 -448
-33 -97 -134 -203 -222 -232 -39 -13 -44 -25 -13 -27 39 -3 167 -71 212 -112
80 -74 122 -178 126 -311 3 -137 -42 -251 -139 -351 -80 -81 -162 -118 -301
-135 -30 -3 -56 -8 -59 -9 -3 -2 -44 -7 -90 -11 -87 -7 -1015 -13 -1037 -6
-10 3 -13 189 -13 886 0 486 2 885 4 887 2 2 253 3 558 2 457 -1 566 -4 628
-17z"/>
<path d="M1762 2365 l0 -170 157 1 c209 1 256 16 296 94 22 43 16 137 -11 173
-43 57 -93 69 -300 71 l-141 1 -1 -170z"/>
<path d="M1767 1853 c-2 -4 -4 -84 -3 -178 l1 -170 200 0 c195 0 201 1 245 25
118 65 118 247 1 298 -20 8 -43 17 -51 20 -30 8 -388 13 -393 5z"/>
</g>
</svg>
